<svg width="24" height="24" viewBox="0 0 24 24" fill="none" xmlns="http://www.w3.org/2000/svg" xmlns:xlink="http://www.w3.org/1999/xlink">
<path d="M12,24C11.49,23.997 10.986,23.842 10.526,23.546C10.066,23.251 9.661,22.823 9.341,22.293L0.922,8.693C0.43,7.875 0.121,6.888 0.029,5.846C-0.063,4.804 0.066,3.749 0.402,2.8C0.675,1.976 1.119,1.273 1.683,0.777C2.247,0.28 2.906,0.01 3.582,0L20.418,0C21.094,0.01 21.753,0.28 22.317,0.777C22.881,1.273 23.325,1.976 23.598,2.8C23.934,3.749 24.063,4.804 23.971,5.846C23.879,6.888 23.57,7.875 23.078,8.693L14.659,22.293C14.339,22.823 13.934,23.251 13.474,23.546C13.014,23.842 12.51,23.997 12,24ZM4.182,5.333L12,18.187L19.998,5.333L4.182,5.333Z" fill="#000000"/>
</svg>
