<svg width="50" height="50" viewBox="0 0 50 50" fill="none" xmlns="http://www.w3.org/2000/svg" xmlns:xlink="http://www.w3.org/1999/xlink">
<path d="M13.533,29.154C14.36,29.154 15.154,28.826 15.739,28.241C16.323,27.656 16.652,26.863 16.652,26.035C16.652,25.208 16.323,24.415 15.739,23.83C15.154,23.245 14.36,22.917 13.533,22.917C12.706,22.917 11.913,23.245 11.328,23.83C10.743,24.415 10.415,25.208 10.415,26.035C10.415,26.863 10.743,27.656 11.328,28.241C11.913,28.826 12.706,29.154 13.533,29.154ZM16.654,36.454C16.654,37.281 16.326,38.075 15.741,38.659C15.156,39.244 14.363,39.573 13.535,39.573C12.708,39.573 11.915,39.244 11.33,38.659C10.745,38.075 10.417,37.281 10.417,36.454C10.417,35.627 10.745,34.834 11.33,34.249C11.915,33.664 12.708,33.335 13.535,33.335C14.363,33.335 15.156,33.664 15.741,34.249C16.326,34.834 16.654,35.627 16.654,36.454ZM25,29.154C25.827,29.154 26.62,28.826 27.205,28.241C27.79,27.656 28.119,26.863 28.119,26.035C28.119,25.208 27.79,24.415 27.205,23.83C26.62,23.245 25.827,22.917 25,22.917C24.173,22.917 23.38,23.245 22.795,23.83C22.21,24.415 21.881,25.208 21.881,26.035C21.881,26.863 22.21,27.656 22.795,28.241C23.38,28.826 24.173,29.154 25,29.154ZM28.121,36.454C28.121,37.281 27.792,38.075 27.207,38.659C26.622,39.244 25.829,39.573 25.002,39.573C24.175,39.573 23.382,39.244 22.797,38.659C22.212,38.075 21.883,37.281 21.883,36.454C21.883,35.627 22.212,34.834 22.797,34.249C23.382,33.664 24.175,33.335 25.002,33.335C25.829,33.335 26.622,33.664 27.207,34.249C27.792,34.834 28.121,35.627 28.121,36.454ZM36.454,29.154C37.281,29.154 38.075,28.826 38.659,28.241C39.244,27.656 39.573,26.863 39.573,26.035C39.573,25.208 39.244,24.415 38.659,23.83C38.075,23.245 37.281,22.917 36.454,22.917C35.627,22.917 34.834,23.245 34.249,23.83C33.664,24.415 33.335,25.208 33.335,26.035C33.335,26.863 33.664,27.656 34.249,28.241C34.834,28.826 35.627,29.154 36.454,29.154ZM50,10.417C50,7.654 48.903,5.004 46.949,3.051C44.996,1.097 42.346,0 39.583,0L10.417,0C7.654,0 5.004,1.097 3.051,3.051C1.097,5.004 0,7.654 0,10.417L0,39.583C0,42.346 1.097,44.996 3.051,46.949C5.004,48.903 7.654,50 10.417,50L39.583,50C42.346,50 44.996,48.903 46.949,46.949C48.903,44.996 50,42.346 50,39.583L50,10.417ZM4.167,16.667L45.833,16.667L45.833,39.583C45.833,41.241 45.175,42.831 44.003,44.003C42.831,45.175 41.241,45.833 39.583,45.833L10.417,45.833C8.759,45.833 7.169,45.175 5.997,44.003C4.825,42.831 4.167,41.241 4.167,39.583L4.167,16.667ZM10.417,4.167L39.583,4.167C41.241,4.167 42.831,4.825 44.003,5.997C45.175,7.169 45.833,8.759 45.833,10.417L45.833,12.5L4.167,12.5L4.167,10.417C4.167,8.759 4.825,7.169 5.997,5.997C7.169,4.825 8.759,4.167 10.417,4.167Z" fill="#000000"/>
</svg>
