<svg width="48" height="50" viewBox="0 0 48 50" fill="none" xmlns="http://www.w3.org/2000/svg" xmlns:xlink="http://www.w3.org/1999/xlink">
<path d="M40.499,27.63C40.906,27.63 41.257,27.779 41.554,28.076C41.851,28.372 41.999,28.724 41.999,29.13C41.999,29.536 41.851,29.888 41.554,30.185C41.257,30.482 40.906,30.63 40.499,30.63C40.093,30.63 39.742,30.482 39.445,30.185C39.148,29.888 38.999,29.536 38.999,29.13C38.999,28.724 39.148,28.372 39.445,28.076C39.742,27.779 40.093,27.63 40.499,27.63ZM26.367,27.185C25.132,26.341 23.804,25.708 22.382,25.286C20.961,24.865 19.5,24.646 18,24.63C16.625,24.63 15.297,24.81 14.015,25.169C12.734,25.529 11.539,26.029 10.43,26.669C9.32,27.31 8.312,28.091 7.406,29.013C6.5,29.935 5.719,30.951 5.062,32.06C4.406,33.169 3.898,34.365 3.539,35.646C3.18,36.927 3,38.255 3,39.63L0,39.63C0,37.802 0.273,36.013 0.82,34.263C1.367,32.513 2.156,30.896 3.187,29.411C4.219,27.927 5.445,26.607 6.867,25.451C8.289,24.294 9.875,23.411 11.625,22.802C10.75,22.24 9.969,21.591 9.281,20.857C8.594,20.122 8,19.318 7.5,18.443C7,17.568 6.633,16.646 6.398,15.677C6.164,14.708 6.031,13.693 6,12.63C6,10.974 6.312,9.419 6.937,7.966C7.562,6.513 8.414,5.24 9.492,4.146C10.57,3.052 11.844,2.193 13.312,1.568C14.781,0.943 16.343,0.63 18,0.63C19.656,0.63 21.211,0.943 22.664,1.568C24.117,2.193 25.39,3.044 26.484,4.122C27.578,5.2 28.437,6.474 29.062,7.943C29.687,9.411 30,10.974 30,12.63C30,13.677 29.875,14.685 29.625,15.654C29.375,16.622 29,17.552 28.5,18.443C28,19.333 27.414,20.138 26.742,20.857C26.07,21.576 25.281,22.224 24.375,22.802C25.64,23.255 26.859,23.88 28.031,24.677L26.367,27.185ZM9,12.63C9,13.88 9.234,15.044 9.703,16.122C10.172,17.2 10.812,18.154 11.625,18.982C12.437,19.81 13.39,20.458 14.484,20.927C15.578,21.396 16.75,21.63 18,21.63C19.234,21.63 20.398,21.396 21.492,20.927C22.586,20.458 23.539,19.818 24.351,19.005C25.164,18.193 25.812,17.24 26.296,16.146C26.781,15.052 27.015,13.88 27,12.63C27,11.396 26.765,10.232 26.296,9.138C25.828,8.044 25.187,7.091 24.375,6.279C23.562,5.466 22.601,4.818 21.492,4.333C20.383,3.849 19.218,3.615 18,3.63C16.75,3.63 15.586,3.865 14.508,4.333C13.429,4.802 12.476,5.443 11.648,6.255C10.82,7.068 10.172,8.029 9.703,9.138C9.234,10.247 9,11.411 9,12.63ZM38.999,21.63C40.234,21.63 41.398,21.865 42.492,22.333C43.585,22.802 44.538,23.443 45.351,24.255C46.163,25.068 46.812,26.029 47.296,27.138C47.781,28.247 48.015,29.411 47.999,30.63C47.999,31.88 47.765,33.044 47.296,34.122C46.827,35.201 46.187,36.154 45.374,36.982C44.562,37.81 43.601,38.458 42.492,38.927C41.382,39.396 40.218,39.63 38.999,39.63C37.984,39.63 36.984,39.451 35.999,39.091L35.999,42.63L32.999,42.63L32.999,45.63L30,45.63L30,48.63L21,48.63L21,42.021L30.257,32.74C30.085,32.021 30,31.318 30,30.63C30,29.396 30.234,28.232 30.703,27.138C31.171,26.044 31.812,25.091 32.625,24.279C33.437,23.466 34.39,22.818 35.484,22.333C36.578,21.849 37.749,21.615 38.999,21.63ZM38.999,36.63C39.828,36.63 40.601,36.474 41.32,36.161C42.038,35.849 42.679,35.419 43.242,34.872C43.804,34.326 44.234,33.693 44.531,32.974C44.827,32.255 44.984,31.474 44.999,30.63C44.999,29.802 44.843,29.029 44.531,28.31C44.218,27.591 43.788,26.951 43.242,26.388C42.695,25.826 42.062,25.396 41.343,25.099C40.624,24.802 39.843,24.646 38.999,24.63C38.171,24.63 37.398,24.786 36.679,25.099C35.96,25.411 35.32,25.841 34.757,26.388C34.195,26.935 33.765,27.568 33.468,28.286C33.171,29.005 33.015,29.786 32.999,30.63C32.999,31.177 33.07,31.677 33.21,32.13C33.351,32.583 33.515,33.06 33.703,33.56L24,43.24L24,45.63L27,45.63L27,42.63L30,42.63L30,39.63L32.999,39.63L32.999,37.497L35.179,35.341C35.804,35.701 36.406,36.005 36.984,36.255C37.562,36.505 38.234,36.63 38.999,36.63Z" fill="#000000"/>
</svg>
