<svg width="48" height="48" viewBox="0 0 48 48" fill="none" xmlns="http://www.w3.org/2000/svg" xmlns:xlink="http://www.w3.org/1999/xlink">
<path d="M34,0C30.414,0 27.164,0.672 24.624,1.938C22.086,3.204 20,5.266 20,8L20,16C20,16.258 20.086,16.508 20.126,16.75C18.124,16.241 16.066,15.989 14,16C10.414,16 7.164,16.672 4.624,17.938C2.086,19.204 0,21.266 0,24L0,40C0,42.734 2.086,44.796 4.626,46.062C7.164,47.328 10.414,48 14,48C17.586,48 20.836,47.328 23.376,46.062C25.912,44.796 28,42.734 28,40L28,39.188C29.956,39.717 31.973,39.99 34,40C37.586,40 40.836,39.328 43.376,38.062C45.912,36.796 48,34.734 48,32L48,8C48,5.266 45.914,3.204 43.374,1.938C40.838,0.672 37.588,0 34,0ZM34,4C37.046,4 39.758,4.656 41.562,5.562C43.368,6.468 44,7.422 44,8C44,8.58 43.368,9.532 41.562,10.438C39.76,11.344 37.046,12 34,12C30.954,12 28.242,11.344 26.438,10.438C24.632,9.532 24,8.578 24,8C24,7.42 24.632,6.468 26.438,5.562C28.24,4.656 30.954,4 34,4ZM24,13.688C24.21,13.804 24.406,13.954 24.626,14.062C27.164,15.328 30.414,16 34,16C37.586,16 40.836,15.328 43.376,14.062C43.594,13.954 43.79,13.804 44,13.688L44,16C44,16.58 43.368,17.532 41.562,18.438C39.758,19.344 37.046,20 34,20C30.954,20 28.242,19.344 26.438,18.438C24.632,17.532 24,16.578 24,16L24,13.688ZM14,20C17.046,20 19.758,20.656 21.562,21.562C23.368,22.468 24,23.422 24,24C24,24.58 23.368,25.532 21.562,26.438C19.758,27.344 17.046,28 14,28C10.954,28 8.242,27.344 6.438,26.438C4.632,25.532 4,24.578 4,24C4,23.42 4.632,22.468 6.438,21.562C8.24,20.656 10.954,20 14,20ZM44,21.688L44,24C44,24.58 43.368,25.532 41.562,26.438C39.758,27.344 37.046,28 34,28C31.963,28.011 29.937,27.694 28,27.062L28,24C28,23.742 27.914,23.492 27.874,23.25C29.734,23.734 31.796,24 34,24C37.586,24 40.836,23.328 43.376,22.062C43.594,21.954 43.79,21.804 44,21.688ZM4,29.688C4.21,29.804 4.406,29.954 4.626,30.062C7.164,31.328 10.414,32 14,32C17.586,32 20.836,31.328 23.376,30.062C23.594,29.954 23.79,29.804 24,29.688L24,32C24,32.58 23.368,33.532 21.562,34.438C19.758,35.344 17.046,36 14,36C10.954,36 8.242,35.344 6.438,34.438C4.632,33.532 4,32.578 4,32L4,29.688ZM44,29.688L44,32C44,32.58 43.368,33.532 41.562,34.438C39.758,35.344 37.046,36 34,36C31.726,36 29.672,35.68 28,35.124L28,31.25C29.836,31.734 31.836,32 34,32C37.586,32 40.836,31.328 43.376,30.062C43.594,29.954 43.79,29.804 44,29.688ZM4,37.688C4.21,37.804 4.406,37.954 4.626,38.062C7.164,39.328 10.414,40 14,40C17.586,40 20.836,39.328 23.376,38.062C23.594,37.954 23.79,37.804 24,37.688L24,40C24,40.58 23.368,41.532 21.562,42.438C19.758,43.344 17.046,44 14,44C10.954,44 8.242,43.344 6.438,42.438C4.632,41.532 4,40.578 4,40L4,37.688Z" fill="#000000"/>
</svg>
