<svg width="48" height="48" viewBox="0 0 48 48" fill="none" xmlns="http://www.w3.org/2000/svg" xmlns:xlink="http://www.w3.org/1999/xlink">
<path d="M24,48C20.72,48 17.62,47.37 14.7,46.109C11.78,44.848 9.23,43.128 7.051,40.949C4.87,38.77 3.15,36.22 1.891,33.3C0.632,30.38 0.002,27.28 0,24C0,20.68 0.63,17.57 1.891,14.671C3.152,11.772 4.872,9.232 7.051,7.051C9.23,4.87 11.779,3.15 14.698,1.891C17.616,0.632 20.717,0.002 24,0C27.32,0 30.43,0.63 33.331,1.891C36.232,3.152 38.771,4.872 40.949,7.051C43.13,9.23 44.85,11.77 46.109,14.671C47.368,17.572 47.998,20.682 48,24C48,27.28 47.37,30.38 46.109,33.3C44.848,36.22 43.128,38.77 40.949,40.951C38.77,43.13 36.23,44.85 33.329,46.111C30.428,47.372 27.318,48.002 24,48ZM24,43.08C25.04,41.64 25.94,40.14 26.7,38.58C27.46,37.02 28.08,35.36 28.56,33.6L19.44,33.6C19.92,35.36 20.54,37.02 21.3,38.58C22.06,40.14 22.96,41.64 24,43.08ZM17.76,42.12C17.04,40.8 16.41,39.43 15.871,38.009C15.332,36.588 14.882,35.118 14.52,33.6L7.44,33.6C8.6,35.6 10.05,37.34 11.791,38.82C13.532,40.3 15.522,41.4 17.76,42.12ZM30.24,42.12C32.48,41.4 34.47,40.3 36.211,38.82C37.952,37.34 39.402,35.6 40.56,33.6L33.48,33.6C33.12,35.12 32.67,36.59 32.131,38.011C31.592,39.432 30.962,40.802 30.24,42.12ZM5.4,28.8L13.56,28.8C13.44,28 13.35,27.21 13.291,26.431C13.232,25.652 13.202,24.842 13.2,24C13.2,23.16 13.23,22.35 13.291,21.571C13.352,20.792 13.442,20.002 13.56,19.2L5.4,19.2C5.2,20 5.05,20.79 4.951,21.571C4.852,22.352 4.802,23.162 4.8,24C4.8,24.84 4.85,25.65 4.951,26.431C5.052,27.212 5.202,28.002 5.4,28.8ZM18.36,28.8L29.64,28.8C29.76,28 29.85,27.21 29.911,26.431C29.972,25.652 30.002,24.842 30,24C30,23.16 29.97,22.35 29.909,21.571C29.848,20.792 29.758,20.002 29.64,19.2L18.36,19.2C18.24,20 18.15,20.79 18.091,21.571C18.032,22.352 18.002,23.162 18,24C18,24.84 18.03,25.65 18.091,26.431C18.152,27.212 18.242,28.002 18.36,28.8ZM34.44,28.8L42.6,28.8C42.8,28 42.95,27.21 43.051,26.431C43.152,25.652 43.202,24.842 43.2,24C43.2,23.16 43.15,22.35 43.051,21.571C42.952,20.792 42.802,20.002 42.6,19.2L34.44,19.2C34.56,20 34.65,20.79 34.711,21.571C34.772,22.352 34.802,23.162 34.8,24C34.8,24.84 34.77,25.65 34.709,26.431C34.648,27.212 34.558,28.002 34.44,28.8ZM33.48,14.4L40.56,14.4C39.4,12.4 37.95,10.66 36.211,9.18C34.472,7.7 32.482,6.6 30.24,5.88C30.96,7.2 31.59,8.57 32.131,9.991C32.672,11.412 33.122,12.882 33.48,14.4ZM19.44,14.4L28.56,14.4C28.08,12.64 27.46,10.98 26.7,9.42C25.94,7.86 25.04,6.36 24,4.92C22.96,6.36 22.06,7.86 21.3,9.42C20.54,10.98 19.92,12.64 19.44,14.4ZM7.44,14.4L14.52,14.4C14.88,12.88 15.33,11.41 15.871,9.989C16.412,8.568 17.042,7.198 17.76,5.88C15.52,6.6 13.53,7.7 11.789,9.18C10.048,10.66 8.598,12.4 7.44,14.4Z" fill="#000000"/>
</svg>
