<svg width="50" height="50" viewBox="0 0 50 50" fill="none" xmlns="http://www.w3.org/2000/svg" xmlns:xlink="http://www.w3.org/1999/xlink">
<path d="M47.845,50L28.734,30.891C27.208,32.191 25.453,33.197 23.469,33.909C21.486,34.621 19.492,34.977 17.488,34.977C12.6,34.977 8.464,33.286 5.078,29.902C1.693,26.517 0,22.382 0,17.498C0,12.613 1.691,8.476 5.072,5.087C8.456,1.696 12.59,0 17.475,0C22.363,0 26.501,1.693 29.891,5.078C33.28,8.463 34.975,12.6 34.975,17.489C34.975,19.608 34.6,21.66 33.849,23.644C33.096,25.627 32.11,27.324 30.889,28.734L50,47.839L47.845,50ZM17.488,31.922C21.537,31.922 24.956,30.529 27.745,27.742C30.533,24.955 31.926,21.536 31.926,17.486C31.926,13.437 30.533,10.019 27.745,7.232C24.958,4.445 21.54,3.052 17.491,3.052C13.442,3.052 10.023,4.445 7.233,7.232C4.446,10.019 3.052,13.437 3.052,17.486C3.052,21.534 4.446,24.952 7.233,27.739C10.021,30.526 13.439,31.922 17.488,31.922Z" fill="#FFFFFF"/>
</svg>
